<?xml version="1.0" standalone="no"?>
<!DOCTYPE svg PUBLIC "-//W3C//DTD SVG 20010904//EN"
 "http://www.w3.org/TR/2001/REC-SVG-20010904/DTD/svg10.dtd">
<svg version="1.0" xmlns="http://www.w3.org/2000/svg"
 width="562.000000pt" height="438.000000pt" viewBox="0 0 562.000000 438.000000"
 preserveAspectRatio="xMidYMid meet">
<metadata>
Created by potrace 1.16, written by Peter Selinger 2001-2019
</metadata>
<g transform="translate(0.000000,438.000000) scale(0.100000,-0.100000)"
fill="#000000" stroke="none">
<path d="M480 2150 l0 -1830 245 0 245 0 0 860 0 860 830 0 830 0 0 -860 0
-860 245 0 245 0 0 1830 0 1830 -245 0 -245 0 0 -775 0 -775 -830 0 -830 0 0
775 0 775 -245 0 -245 0 0 -1830z"/>
<path d="M3945 3841 c-167 -21 -339 -147 -422 -308 -39 -75 -73 -204 -73 -274
0 -95 46 -242 104 -329 41 -63 163 -180 186 -180 6 0 23 -8 37 -17 126 -83
400 -83 526 0 14 9 33 17 42 17 8 0 15 3 15 8 0 4 10 13 21 20 19 12 25 10 51
-15 25 -23 88 -107 88 -117 0 -1 17 -22 38 -46 20 -24 49 -57 63 -73 23 -27
33 -31 76 -31 43 0 54 4 77 30 36 41 36 102 -1 142 -40 43 -150 132 -163 132
-6 0 -33 21 -60 46 l-50 46 21 30 c67 93 117 273 105 372 -12 97 -28 151 -68
232 -39 78 -123 184 -146 184 -7 0 -12 4 -12 9 0 13 -91 66 -161 94 -72 28
-195 40 -294 28z m226 -154 c80 -28 132 -60 184 -113 48 -50 57 -63 92 -134
26 -51 28 -64 28 -180 0 -122 -1 -126 -34 -195 -169 -343 -646 -337 -806 10
-33 71 -35 81 -35 184 0 100 2 113 30 172 38 80 46 92 95 143 118 121 295 166
446 113z"/>
<path d="M3950 3634 c-24 -10 -70 -65 -70 -85 0 -30 57 -25 86 6 19 20 32 25
74 25 42 0 55 -5 74 -25 29 -31 86 -36 86 -6 0 10 -13 34 -30 52 -29 33 -31
34 -117 36 -48 1 -95 0 -103 -3z"/>
<path d="M3717 3467 c-32 -27 -32 -28 -10 -75 34 -73 105 -123 209 -147 198
-46 398 19 457 148 21 48 22 41 -8 72 l-26 25 -298 0 c-296 0 -298 0 -324 -23z"/>
<path d="M3680 3193 c0 -175 -27 -163 358 -163 303 0 307 0 335 23 l28 22 -3
119 -3 118 -25 -24 c-44 -41 -103 -74 -171 -93 -64 -18 -66 -20 -75 -59 l-9
-41 -75 0 -75 0 -9 41 c-9 39 -11 41 -74 59 -68 19 -146 58 -159 78 -5 7 -16
18 -25 26 -17 13 -18 6 -18 -106z"/>
<path d="M3630 556 l0 -246 55 0 55 0 -2 243 -3 242 -52 3 -53 3 0 -245z"/>
<path d="M3870 555 l0 -245 60 0 60 0 0 166 c0 93 4 174 10 184 14 27 81 46
108 31 31 -17 36 -15 71 34 l32 44 -30 16 c-17 8 -50 15 -75 15 -36 0 -52 -6
-80 -30 l-35 -31 -3 28 c-3 27 -6 28 -60 31 l-58 3 0 -246z"/>
<path d="M4280 556 l0 -246 55 0 55 0 -2 243 -3 242 -52 3 -53 3 0 -245z"/>
<path d="M4520 555 l0 -245 55 0 55 0 0 164 c0 159 1 166 24 193 19 22 32 28
66 28 34 0 47 -6 66 -28 23 -27 24 -34 24 -193 l0 -164 55 0 55 0 0 168 c0
189 -8 229 -54 279 -25 28 -41 36 -78 40 -60 7 -89 -1 -127 -33 l-31 -26 0 31
c0 31 0 31 -55 31 l-55 0 0 -245z"/>
<path d="M5128 785 c-14 -8 -37 -32 -50 -52 -20 -33 -23 -53 -27 -157 -5 -172
17 -228 104 -261 54 -21 103 -14 145 21 l30 26 0 -44 c0 -54 -19 -83 -65 -98
-38 -13 -84 -3 -114 24 -14 13 -21 10 -55 -21 l-39 -36 33 -28 c71 -60 211
-60 282 -1 63 53 68 77 68 375 l0 267 -55 0 c-55 0 -55 0 -55 -31 l0 -31 -35
31 c-30 26 -43 31 -88 31 -29 -1 -64 -7 -79 -15z m177 -110 c23 -22 25 -32 25
-115 0 -126 -14 -150 -87 -150 -33 0 -46 5 -62 26 -18 23 -21 41 -21 121 0 86
2 96 25 118 16 17 35 25 60 25 25 0 44 -8 60 -25z"/>
</g>
</svg>
